<?xml version="1.0" encoding="UTF-8"?>
<!-- Created with Inkscape (http://www.inkscape.org/) -->
<svg width="96.819mm" height="25.41mm" version="1.1" viewBox="0 0 96.819 25.41" xml:space="preserve" xmlns="http://www.w3.org/2000/svg"><g transform="translate(-139.5 -476.93)"><path d="m154.38 489.65v-8.8095l17.337 0.0953v17.428l-17.337 0.0953zm16.144 0v-7.5219h-15.044v15.044h15.044zm15.711 8.537c-1.6582-0.59113-2.397-1.9742-2.2918-4.2901 0.0578-1.2742 0.13839-1.5674 0.61624-2.2439 0.75663-1.0711 1.7286-1.5455 3.1366-1.5306 1.3763 0.0146 2.2044 0.45157 2.7715 1.4625 0.44593 0.79499 0.45537 0.78112-0.72604 1.068-0.361 0.0877-0.50451 0.0524-0.50451-0.12421 0-0.13568-0.19644-0.43125-0.43652-0.65679-0.57393-0.53917-1.7946-0.57425-2.4687-0.071-0.96734 0.72223-1.1858 3.1121-0.40231 4.4005 0.75725 1.2452 2.5588 1.136 3.1896-0.19332 0.28877-0.60857 0.34979-0.64435 0.81133-0.47578 0.27448 0.10025 0.60475 0.21948 0.73395 0.26495 0.28785 0.10133-0.26349 1.2781-0.84531 1.8043-0.86292 0.78035-2.3537 1.0238-3.5839 0.58527zm14.992 0.0937c-1.6182-0.38589-2.6192-1.6726-2.769-3.5595-0.11363-1.431 0.1799-2.5161 0.9037-3.3404 0.85605-0.97497 1.5168-1.2513 2.9921-1.2513 2.2281 0 3.5126 1.1334 3.8525 3.3993 0.47705 3.1813-1.9305 5.479-4.9792 4.752zm2.4386-1.6028c0.87074-0.57052 1.2574-2.7102 0.72153-3.9928-0.34785-0.83255-1.0065-1.2314-2.0334-1.2314-1.6272 0-2.3746 0.97497-2.2629 2.952 0.0506 0.89406 0.17945 1.3702 0.48852 1.8043 0.66387 0.93232 2.0554 1.1433 3.0862 0.46789zm-30.39-2.4417v-4.0361h1.1802c0.96451 0 1.1979 0.0586 1.2775 0.32106 0.0535 0.17658 0.38705 1.3851 0.7411 2.6856 0.35404 1.3005 0.67604 2.3969 0.7155 2.4364 0.0396 0.0396 0.33549-0.94204 0.65775-2.1811 0.9159-3.5217 0.68245-3.1619 2.093-3.2245l1.2237-0.0542v8.0891h-1.4677l-0.0116-3.1647c-5e-3 -1.7656-0.0762-3.0024-0.15757-2.7978-0.0802 0.2018-0.46718 1.6258-0.85979 3.1644l-0.71385 2.7974-0.75442 3.7e-4 -0.75439 2.7e-4 -1.61-6.3293-0.0502 3.1647-0.0502 3.1647h-1.459zm8.6223 0v-4.0361h1.4677v8.0724h-1.4677zm9.5396 0v-4.0361h2.1202c3.462 0 4.2938 0.37019 4.427 1.9703 0.0928 1.113-0.2128 1.6913-1.1397 2.1575-0.40119 0.20181-0.76576 0.38946-0.81016 0.41701-0.0443 0.0274 0.10035 0.17684 0.32149 0.33177 0.37818 0.26486 1.5488 1.8688 2.031 2.7828 0.21223 0.40222 0.19419 0.41279-0.70476 0.41279h-0.92254l-1.0305-1.5486c-0.74082-1.1132-1.1872-1.6032-1.588-1.7428-1.0406-0.36276-1.053-0.34442-1.053 1.5485v1.7428h-1.6511zm4.403-0.78658c0.31089-0.15645 0.47404-0.40676 0.50644-0.777 0.0814-0.92992-0.15911-1.0864-1.7829-1.1602l-1.4754-0.0669v2.2403l1.1466-2e-3c0.63065-1e-3 1.353-0.10652 1.6053-0.2335zm-11.81-4.4251c-1.0802-0.40203-1.9186-1.3228-2.2536-2.475-0.53169-1.829 0.0141-3.9016 1.282-4.8687 1.1227-0.85632 3.3631-0.96116 4.6239-0.21638 1.6476 0.97324 2.2433 4.0642 1.1562 5.9985-0.81765 1.4549-3.1019 2.1966-4.8085 1.5616zm2.4382-1.3472c0.8311-0.4255 1.2998-1.3526 1.2998-2.5712 0-1.9142-0.72251-2.7947-2.2932-2.7947-1.5448 0-2.2975 0.88781-2.2892 2.7001 0.01 2.2646 1.5786 3.5382 3.2826 2.6658zm5.1048 1.3433c-0.89809-0.32048-1.239-0.61639-1.5402-1.3371-0.39327-0.94087-0.32514-1.1065 0.48707-1.184 0.49358-0.0471 0.73382 3e-3 0.73382 0.15397 0 0.46604 0.83532 1.1756 1.5105 1.2831 1.2479 0.19867 2.1765-0.48238 1.8898-1.3859-0.11989-0.37776-0.54033-0.57834-2.1745-1.0374-1.9645-0.5519-2.8599-1.8256-2.2722-3.2323 0.35832-0.85759 1.3071-1.2996 2.7893-1.2996 1.4265 0 2.3495 0.41618 2.7377 1.2344 0.41104 0.8662 0.37199 0.98087-0.38211 1.1223-0.54202 0.10177-0.71765 0.0591-0.91104-0.22102-0.46579-0.67463-0.62417-0.78996-1.2448-0.90639-0.72257-0.13555-1.6327 0.22222-1.7202 0.67616-0.0964 0.50017 0.44703 0.85045 2.1025 1.3554 2.1111 0.64393 2.6285 1.143 2.6285 2.5358 0 0.80211-0.0918 1.1182-0.44779 1.5412-0.7621 0.90571-2.7026 1.2309-4.1862 0.70145zm17.201-6e-4c-1.5603-0.5711-2.4208-2.2598-2.248-4.4116 0.18696-2.3292 1.5111-3.6271 3.7004-3.6271 1.5978 0 2.576 0.56204 3.0226 1.7365 0.17922 0.47139 0.15382 0.50726-0.48388 0.68334-0.63951 0.17658-0.69921 0.15408-1.1987-0.45197-0.45689-0.55428-0.63296-0.63781-1.3444-0.63781-1.523 0-2.0902 0.76683-2.0896 2.8251 3.6e-4 1.5273 0.41575 2.3253 1.3848 2.6604 0.95119 0.32886 1.6482 0.0366 2.1866-0.91666 0.35659-0.63135 0.39771-0.6511 0.95569-0.45866 0.32069 0.11066 0.63862 0.2576 0.70649 0.32665 0.21893 0.22267-0.70663 1.624-1.3251 2.0062-0.78714 0.48649-2.3222 0.6113-3.2667 0.26559zm7.3638-5e-3c-1.5636-0.55741-2.3815-1.8863-2.3753-3.8591 9e-3 -2.772 1.3133-4.1602 3.9096-4.1602 1.623 0 2.5595 0.46437 3.2243 1.5988 0.60223 1.0276 0.79178 2.79 0.43657 4.0587-0.57571 2.0563-2.9827 3.1506-5.1952 2.3618zm2.3617-1.2796c1.0425-0.4356 1.4029-1.2229 1.3354-2.9175-0.0542-1.3604-0.0897-1.4678-0.65431-1.9722-0.47311-0.42273-0.76967-0.53342-1.4288-0.53342-1.6806 0-2.3772 0.83657-2.3678 2.8436 5e-3 1.2945 0.4272 2.1433 1.2696 2.559 0.70462 0.34773 1.0534 0.35159 1.8459 0.0204zm-45.224-2.6712v-4.0361h2.3589l0.27339 0.96319c0.15035 0.52973 0.45655 1.6649 0.68042 2.5226 0.22388 0.85765 0.46649 1.6726 0.53911 1.811 0.0795 0.15155 0.29333-0.3591 0.53764-1.2842 0.2231-0.84467 0.55115-2.0724 0.72904-2.7283l0.32339-1.1925 2.4468-0.1085v8.0891h-1.459l-0.10046-6.3293-1.6455 6.3293h-1.511l-1.6134-6.3062-0.0502 3.1531-0.0502 3.1531h-1.459zm23.189 2.8895c0.24046-0.63064 0.94766-2.4469 1.5715-4.0361l1.1343-2.8895 1.7155 5e-3 3.1631 8.0669h-1.701l-0.6516-1.8346h-3.3845l-0.3258 0.91728c-0.32481 0.91452-0.32825 0.91729-1.1422 0.91729h-0.81646zm4.6965-2.0483c0-0.18104-1.1465-3.0582-1.198-3.0067-0.0314 0.0314-0.30557 0.7379-0.60923 1.5699l-0.5521 1.5128h1.1796c0.64883 0 1.1797-0.0342 1.1797-0.0761zm3.3022-0.84121v-4.0361h1.4677v8.0724h-1.4677z" stroke-width=".18346"/></g></svg>
