<?xml version="1.0" encoding="UTF-8"?>
<!-- Created with Inkscape (http://www.inkscape.org/) -->
<svg width="594.14mm" height="67.025mm" version="1.1" viewBox="0 0 594.14 67.025" xml:space="preserve" xmlns="http://www.w3.org/2000/svg"><g transform="matrix(.91209 0 0 .91209 285.21 -557.39)"><path d="m-287.7 684.35c-6.4245-0.93345-12.28-3.9331-16.173-8.2846-5.8209-6.5075-8.8305-16.126-8.8305-28.221 0-5.3044 0.31332-8.528 1.231-12.666 1.5771-7.1103 3.954-11.635 8.4138-16.018 3.7805-3.715 8.2759-6.0433 14.05-7.2773 3.3449-0.71479 10.45-1.0013 13.642-0.55004 11.327 1.6014 18.935 8.2677 21.679 18.996 0.28315 1.1071 0.51483 2.1725 0.51483 2.3675 0 0.27815-0.74105 0.35454-3.4396 0.35454-2.7971 0-3.4396-0.0703-3.4396-0.37624 0-0.79663-1.5928-5.0068-2.5369-6.7058-1.5237-2.7419-4.4964-5.5643-7.2527-6.886-3.8628-1.8523-8.1368-2.6054-13.361-2.3544-11.865 0.57002-19.492 8.196-22.278 22.276-0.66981 3.3856-0.66912 14.255 1e-3 17.789 1.7615 9.2886 5.6126 15.667 11.588 19.192 6.704 3.9555 17.056 4.0225 23.607 0.15277 4.8138-2.8434 8.8841-8.4832 10.641-14.743l0.45508-1.6219h3.4047c1.8726 0 3.4047 0.0945 3.4047 0.20987 0 0.6386-1.4949 5.2077-2.3615 7.2178-4.1868 9.7115-11.664 15.489-22.041 17.03-2.9679 0.44069-8.3026 0.49853-10.919 0.11838zm54.769-0.61008c-7.8421-1.5298-13.494-6.476-16.033-14.032-1.3394-3.9857-1.6824-6.4069-1.6698-11.786 9e-3 -4.0016 0.11263-5.3322 0.56599-7.2918 1.3002-5.6199 3.4672-9.6766 7.0583-13.213 2.6216-2.5819 4.4607-3.8067 7.2362-4.8188 5.0712-1.8493 11.496-1.8735 16.32-0.0614 2.6423 0.99248 4.6802 2.3494 6.8948 4.591 4.2204 4.2717 6.4832 10.394 6.9269 18.742l0.16515 3.1071-39.107 0.1358 0.0858 1.8521c0.17831 3.8476 1.4081 7.946 3.2612 10.868 1.9519 3.0778 5.7037 5.7492 9.2479 6.5846 0.93088 0.21942 2.8831 0.39894 4.3384 0.39894 3.2103 0 5.4604-0.4972 7.7779-1.7188 3.3924-1.7882 5.4975-4.1934 6.8308-7.8047l0.68146-1.8458h6.4722l-0.62282 1.7158c-2.7121 7.4718-7.4661 12.237-14.135 14.168-2.5448 0.73689-9.439 0.96613-12.296 0.40881zm21.072-31.506c-0.39041-7.6593-4.8908-13.643-11.537-15.34-2.0512-0.52366-6.4495-0.52274-8.4634 3e-3 -4.7024 1.2248-8.6446 4.8671-10.787 9.9662-0.86288 2.0537-1.7945 5.4839-1.7945 6.6071v0.75346l32.676-0.1364-0.0944-1.8521zm42.533 31.5c-5.5984-1.1666-9.9192-4.6145-11.458-9.143-0.63716-1.8752-0.86156-6.1979-0.42458-8.1788 1.242-5.6304 5.9249-9.4863 13.629-11.222 1.0186-0.22956 4.7096-0.78711 8.2021-1.239 11.341-1.4674 12.42-1.898 13.112-5.23 0.66747-3.2152-0.32547-7.0098-2.3682-9.0504-2.3074-2.3049-5.0887-3.1816-10.072-3.1747-8.4489 0.0117-12.439 2.5784-14.182 9.1235l-0.56376 2.1167h-5.7701l0.082-0.92604c0.16026-1.8102 0.90769-4.3923 1.8076-6.2447 2.322-4.7798 6.9695-7.8833 13.462-8.99 3.2344-0.55134 9.6437-0.3997 12.297 0.29091 5.6428 1.4685 9.2154 4.767 10.778 9.9514 0.36778 1.2199 0.44964 3.8137 0.57967 18.366 0.13928 15.587 0.18881 17.002 0.61779 17.657 0.2565 0.39121 0.77096 0.78774 1.1432 0.88116 0.78 0.19577 3.027-0.0621 3.3493-0.38433 0.11978-0.11978 0.21198-10.477 0.20489-23.016l-0.0129-22.798h6.1251l-0.0819 3.7042c-0.0451 2.0373-0.0223 3.704 0.0505 3.7037 0.0728-2.7e-4 0.48462-0.5579 0.91506-1.2392 1.0936-1.731 3.3741-3.9042 5.2513-5.0044 2.7856-1.6326 5.1846-2.2941 8.7828-2.4218 7.224-0.25641 11.739 2.0506 14.394 7.3546l1.0399 2.0777 1.1095-1.7029c1.627-2.4972 4.0889-4.6773 6.6772-5.9129 2.8187-1.3456 5.3136-1.8831 8.714-1.8773 4.9601 8e-3 8.1488 1.0642 10.773 3.5668 2.5311 2.4143 3.8924 5.6456 4.5115 10.709 0.16378 1.3396 0.27411 9.3001 0.27411 19.778v17.536h-5.8208l-0.0045-18.587c-5e-3 -19.807-0.05789-20.747-1.3096-23.2-0.81381-1.5952-2.4782-3.0846-4.196-3.755-2.2617-0.88258-6.8038-1.0122-9.2321-0.26345-4.5741 1.4104-7.7648 4.4616-9.2472 8.8433-1.3003 3.8432-1.4084 5.5168-1.4095 21.815v15.147h-5.8208l-9e-3 -18.19c-0.01-19.66-0.0857-20.93-1.4022-23.528-0.96097-1.8964-2.7788-3.4096-4.8729-4.0564-1.9163-0.59188-5.9513-0.71321-8.0031-0.24067-3.5247 0.81177-7.5004 3.9748-8.9856 7.1488-0.4355 0.93069-1.0584 2.6447-1.3842 3.8088-0.57954 2.0706-0.59435 2.475-0.68049 18.587l-0.0881 16.47h-2.8845c-1.7104 0-3.5047 0.16153-4.4082 0.39688-1.8824 0.4903-3.4629 0.49757-5.4707 0.0251-2.6028-0.6124-3.8446-2.3113-4.2961-5.8781l-0.17152-1.355-1.4918 1.435c-2.8782 2.7686-6.7589 4.9168-10.885 6.0251-2.3159 0.62219-8.4941 0.78796-10.875 0.29178zm9.8596-5.2893c4.2376-0.82851 7.1605-2.2781 9.6144-4.7683 1.8106-1.8373 2.9116-3.8933 3.453-6.4478 0.44965-2.1216 0.53809-10.629 0.11049-10.629-0.15011 0-0.96505 0.23315-1.811 0.51814-2.4746 0.83365-6.7149 1.563-11.542 1.9854-7.3586 0.64387-10.871 1.8337-13.318 4.5112-1.6786 1.8367-2.2828 3.5127-2.2881 6.3467-3e-3 1.7838 0.11175 2.3522 0.73159 3.6143 1.1477 2.3371 3.3704 4.0621 6.276 4.8706 1.6435 0.45734 6.4328 0.45678 8.7741 0zm126.87 5.4092c-10.507-1.8874-16.739-9.3308-18.182-21.717-0.37878-3.2507-0.19754-8.2365 0.40328-11.094 2.0722-9.854 7.8755-16.7 16.202-19.113 1.8118-0.52512 2.6283-0.59529 6.6937-0.57536 5.297 0.0259 7.1866 0.40253 10.76 2.1442 2.5824 1.2588 5.6493 4.1756 7.0412 6.6966 1.072 1.9416 2.175 5.0701 2.4487 6.9453l0.18346 1.2568h-5.81l-0.59378-1.6536c-1.847-5.1436-5.4346-8.6053-10.207-9.8482-0.89596-0.23336-2.6804-0.40439-4.2195-0.40439s-3.3235 0.17103-4.2195 0.40439c-5.6367 1.4682-9.9456 6.3307-11.833 13.354-0.53454 1.9886-0.60452 2.8616-0.60452 7.5406 0 4.6708 0.07064 5.5555 0.6023 7.5406 1.8776 7.0108 6.0323 11.616 11.811 13.091 2.0228 0.51642 6.3827 0.51427 8.5822-4e-3 5.2848-1.2457 9.302-5.4656 10.758-11.301l0.44572-1.7859h3.0106c2.7038 0 3.0105 0.0477 3.0105 0.46834 0 1.115-1.181 4.6293-2.3767 7.0723-2.7033 5.5233-6.5266 8.739-12.44 10.463-1.5734 0.45871-2.8338 0.59626-6.0854 0.66413-2.2556 0.0471-4.6773-0.018-5.3817-0.14449zm40.439-0.15912c-4.0697-0.90646-8.0006-3.4519-9.8758-6.3951-3.327-5.2218-2.5709-12.996 1.6663-17.133 3.4501-3.3684 7.575-4.8022 17.47-6.0726 10.339-1.3275 12.38-1.8642 13.415-3.5286 0.54245-0.87241 0.60809-1.3064 0.60809-4.0207 0-2.7329-0.07038-3.1909-0.6913-4.4979-1.8463-3.8865-5.4003-5.5447-11.9-5.5523-5.3826-6e-3 -8.773 1.1105-11.179 3.6823-1.4689 1.5703-2.442 3.5313-2.925 5.894l-0.34025 1.6646h-5.773l0.07726-1.1906c0.35004-5.3957 3.8927-10.603 8.8142-12.956 3.9349-1.8812 5.6998-2.2195 11.614-2.2266 4.4819-5e-3 5.4268 0.0685 7.1957 0.56219 5.4052 1.5086 8.4362 4.0894 10.217 8.699l0.70313 1.8201 0.13634 17.198c0.07498 9.4588 0.24334 17.377 0.37415 17.595 0.97547 1.628 1.8042 1.8703 4.3712 1.2777l1.3421-0.3098 0.13436-65.13 16.536-0.0776c17.378-0.0815 21.705 0.0889 25.235 0.99407 6.7296 1.7254 11.319 6.1126 13.019 12.445 0.61002 2.2727 0.61719 6.8868 0.0145 9.3655-0.88974 3.6593-3.3428 6.9376-6.3781 8.5236-0.80425 0.42026-1.4554 0.82362-1.4469 0.89638 8e-3 0.0728 0.95853 0.58449 2.1112 1.1372 3.8475 1.8448 6.6115 5.3279 7.8109 9.843 0.64535 2.4294 0.78714 6.9913 0.2975 9.5724-0.82841 4.3671-2.4711 7.394-5.8706 10.817-2.8076 2.8273-5.3066 4.2369-9.0368 5.0975-4.155 0.95859-7.4948 1.1035-25.433 1.1035-15.061 0-17.524 0.0553-18.938 0.4258-2.0249 0.53035-4.9308 0.36319-6.6116-0.38037-1.891-0.83645-3.0594-3.1041-3.0774-5.9727l-0.0063-1.0324-1.5214 1.4363c-3.0782 2.9061-6.2671 4.7455-10.309 5.9459-3.0066 0.89305-8.9188 1.1321-11.85 0.47919zm12.031-5.6527c5.8421-1.6996 9.7091-5.2504 11-10.1 0.40402-1.518 0.56515-11.345 0.1859-11.339-0.10914 3e-3 -1.1057 0.29316-2.2147 0.64736-2.6765 0.85489-5.7687 1.3675-11.213 1.859-6.9358 0.62608-10.533 1.7909-12.927 4.1858-1.635 1.636-2.3481 3.3278-2.494 5.9172-0.25313 4.4931 1.9645 7.6221 6.4503 9.1011 2.194 0.7234 8.3011 0.57574 11.212-0.27106zm60.123-7.9084c0.97613-0.32128 2.2858-0.97271 2.9104-1.4477 2.817-2.1421 4.1132-6.8578 2.9635-10.782-0.59129-2.0182-2.78-4.1529-5.1482-5.021-1.6734-0.61341-1.9204-0.62751-12.621-0.71969l-10.914-0.094v9.2323c0 5.0778 0.0893 9.3219 0.19844 9.4314 0.10914 0.10949 4.8419 0.15084 10.517 0.0919 9.7719-0.10155 10.413-0.1382 12.094-0.69136zm-0.71647-30.472c4.2614-1.4773 6.2663-5.2649 5.0157-9.476-0.48125-1.6205-1.6456-3.0415-3.1005-3.7837-2.1855-1.115-4.0028-1.2782-14.285-1.283l-9.7234-5e-3v15.389l10.12-0.1c9.8983-0.0978 10.161-0.11409 11.972-0.74205zm34.058 44.07c-3.8384-0.87394-7.6741-3.5276-9.3865-6.494-3.0136-5.2204-2.5661-13.354 0.99669-18.115 2.0256-2.7068 4.731-4.5274 8.4182-5.6649 0.99419-0.30668 5.3152-1.0944 9.6023-1.7504 8.1585-1.2485 9.3212-1.5774 10.393-2.9404 0.75208-0.95609 0.76597-3.4141 0.0274-4.8617-1.2044-2.3609-3.7392-3.3009-8.4453-3.1318-2.7782 0.0998-3.2033 0.18356-4.5217 0.89101-1.7534 0.94085-2.9901 2.6376-3.4632 4.7518l-0.32517 1.453h-6.3961c-3.5178 0-6.4562-0.0601-6.5296-0.13359-0.26369-0.26368 0.36692-3.4833 1.137-5.8052 1.0274-3.0976 2.2098-4.9946 4.4-7.0592 2.1276-2.0055 4.3631-3.1696 7.9303-4.1294 2.4326-0.65455 2.9524-0.6967 8.803-0.71379 5.6379-0.0164 6.4398 0.0381 8.599 0.58565 1.3097 0.33213 3.461 1.128 4.7806 1.7685 3.8758 1.8812 5.9929 4.1471 7.3012 7.8142 0.61281 1.7176 0.61376 1.7426 0.74819 19.447 0.13343 17.571 0.13976 17.738 0.71729 18.989 0.35028 0.75856 0.9036 1.4445 1.3874 1.7198 0.67141 0.38211 0.805 0.62233 0.8064 1.4502l3e-3 0.99219h-14.752l-0.40902-1.6536c-0.22495-0.90951-0.49107-2.2192-0.59137-2.9104-0.10028-0.69122-0.24096-1.2568-0.31258-1.2568-0.0716 0-1.0058 0.81764-2.0759 1.817-2.1346 1.9934-4.928 3.5924-7.9203 4.5335-2.4109 0.75829-8.3996 0.98202-10.921 0.40801zm12.376-9.848c3.5463-0.96755 6.5947-3.4822 7.6542-6.314 0.46734-1.249 0.54785-2.0656 0.54785-5.5554 0-2.2501-0.0643-4.0911-0.14282-4.0911-0.0786 0-0.58817 0.2272-1.1324 0.50485-1.4153 0.72205-3.3702 1.2433-7.5191 2.0048-1.9992 0.36695-4.1424 0.86577-4.7625 1.1085-3.2764 1.2823-4.6994 3.2908-4.6994 6.6334 0 5.1166 3.9678 7.3696 10.054 5.709zm71.438 9.8372c-9.9554-2.0045-16.156-11.085-17.078-25.009-0.28998-4.3819 0.61918-11.495 1.8677-14.613 0.17042-0.42548-0.0688-0.4627-2.9517-0.4591-3.5543 4e-3 -5.8875 0.4537-7.8208 1.5059-1.5126 0.82328-3.1172 2.4819-3.9163 4.0482-1.224 2.3993-1.3125 3.6836-1.3174 19.114l-5e-3 14.486h-13.494v-51.594h12.952l0.0726 4.4189 0.0725 4.419 1.2965-2.2362c0.79123-1.3647 2.0285-2.9648 3.175-4.1061 2.8618-2.8487 5.3182-3.81 9.7499-3.8154l2.5797-3e-3 0.018 13.097 1.2355-2.3812c0.99568-1.919 1.7258-2.871 3.7616-4.9043 2.0516-2.0491 2.9486-2.7332 4.7751-3.6416 3.1546-1.5691 5.7567-2.1706 9.3689-2.1657 5.4331 7e-3 8.9763 1.3812 12.369 4.7964 1.1146 1.1219 2.1049 2.2868 2.2006 2.5886 0.55036 1.734 0.66765-0.35433 0.66765-11.887v-12.435h13.494v69.85h-13.229v-3.175c0-1.7462-0.0893-3.1718-0.19844-3.1679-0.10914 4e-3 -0.49609 0.49334-0.8599 1.0876-1.6292 2.6613-5.9008 5.3955-9.6573 6.1815-2.2521 0.47122-6.7896 0.47159-9.1281 0zm11.255-11.127c5.2645-1.3709 8.3184-5.9851 8.7641-13.242 0.30054-4.8934-0.76325-10.259-2.6051-13.14-1.1069-1.7315-2.894-3.2382-4.6754-3.9418-2.1228-0.83841-6.4057-0.8454-8.5056-0.0138-3.1317 1.2401-5.4562 4.2788-6.662 8.7089-0.80348 2.952-0.80864 9.3599-0.01 12.291 1.3668 5.0157 4.1576 8.432 7.657 9.3732 1.7411 0.46828 4.158 0.45426 6.0369-0.035zm45.895 11.361c-5.2878-0.95412-7.9135-1.8371-10.572-3.5555-6.9366-4.4833-10.352-12.35-10.391-23.931-0.0283-8.4885 2.3757-15.327 7.0724-20.119 2.2126-2.2575 4.1305-3.5363 7.0634-4.7097 3.4188-1.3677 4.9772-1.6105 10.399-1.6203 4.4286-8e-3 5.2897 0.0627 7.2328 0.59399 4.0889 1.118 6.891 2.6616 9.6582 5.3205 4.7576 4.5714 7.1041 11.018 7.4987 20.601l0.16618 4.0349h-35.597l0.17709 1.5214c0.37528 3.2238 1.5446 6.1462 3.1863 7.9634 3.2739 3.6238 10.871 4.3048 14.907 1.3363 0.62928-0.46278 1.5008-1.4762 1.9423-2.2584l0.80079-1.4189h13.968l-0.6291 1.6714c-2.1194 5.6307-5.5645 9.5715-10.548 12.066-3.9847 1.9944-6.0314 2.4555-11.308 2.5478-2.4011 0.042-4.6633 0.0228-5.0271-0.043zm14.023-32.591c0-0.742-0.76112-3.4774-1.3177-4.7356-0.78026-1.7639-2.9354-3.8686-4.8412-4.7278-3.6788-1.6587-8.3668-1.0468-11.097 1.4484-2.0623 1.8848-2.7423 3.2899-3.756 7.761l-0.16496 0.7276h10.588c9.9977 0 10.588-0.0265 10.588-0.47357zm-471.22 6.2944v-25.135h5.8208v4.6302c0 2.5466 0.0951 4.6302 0.21143 4.6302 0.11629 0 0.36852-0.4344 0.5605-0.96534 1.1663-3.2254 4.1549-6.6591 6.9533-7.9889 1.9634-0.93303 5.1016-1.6291 7.3448-1.6291h1.5986v6.2723l-2.4474 0.15388c-8.2045 0.51586-12.815 5.8476-13.94 16.119-0.1607 1.4678-0.2813 8.2454-0.2813 15.809v13.24h-5.8208zm142.87 0v-25.135h5.8208v50.271h-5.8208zm345.81-9.7896v-34.925h13.494v69.85h-13.494zm19.644 0.0661 0.0671-34.859h13.494l0.1342 69.718h-13.762zm19.779 9.062v-25.797h13.494v51.594h-13.494zm0-38.232v-6.35h13.494v12.7h-13.494zm-385.5-1.5875v-4.2333h6.35v8.4667h-6.35z" stroke-width=".26458"/></g></svg>
