<svg width="32" height="32" viewBox="0 0 32 32" fill="none" xmlns="http://www.w3.org/2000/svg">
<path fill-rule="evenodd" clip-rule="evenodd" d="M5.54133 7.14495C5.1508 7.53548 5.1508 8.16864 5.54133 8.55917L12.9823 16.0001L5.54142 23.4409C5.1509 23.8315 5.15089 24.4646 5.54142 24.8551L7.14497 26.4587C7.5355 26.8492 8.16866 26.8492 8.55919 26.4587L16 19.0179L23.4408 26.4587C23.8314 26.8492 24.4645 26.8492 24.855 26.4587L26.4586 24.8551C26.8491 24.4646 26.8491 23.8314 26.4586 23.4409L19.0178 16.0001L26.4587 8.55919C26.8492 8.16866 26.8492 7.5355 26.4587 7.14498L24.8551 5.54142C24.4646 5.1509 23.8315 5.15089 23.4409 5.54142L16 12.9823L8.55909 5.5414C8.16857 5.15087 7.53541 5.15087 7.14488 5.5414L5.54133 7.14495Z" fill="white"/>
</svg>
