<svg width="80" height="60" viewBox="0 0 80 60" fill="none" xmlns="http://www.w3.org/2000/svg">
<path d="M35.7674 37.5046C37.0205 38.6031 38.6327 39.1146 40.2227 39.0524C41.7697 39.0835 43.3283 38.5695 44.5471 37.4981L79.5043 6.76572C79.6815 6.60995 79.8468 6.44659 80 6.27666V60H1.19209e-07V6.04102C0.20616 6.29418 0.43742 6.53461 0.693673 6.75924L35.7674 37.5046Z" fill="#D6CBB1"/>
<path d="M0 2.28404L1.19209e-07 0H80V2.56956C79.8384 2.78182 79.6565 2.98454 79.4542 3.17532L43.3724 37.2022C42.4711 38.0522 41.3185 38.5209 40.1401 38.6082C38.9741 38.5135 37.8359 38.0466 36.9436 37.2075L0.745702 3.17004C0.455179 2.89686 0.206612 2.59917 0 2.28404Z" fill="#D6CBB1"/>
</svg>
