<svg width="26" height="33" viewBox="0 0 26 33" fill="none" xmlns="http://www.w3.org/2000/svg">
<path d="M22.4063 3.61087H18.1838V2.59338C18.1838 1.17231 17.0276 0.0161133 15.6064 0.0161133H9.44933C8.02819 0.0161133 6.87199 1.17231 6.87199 2.59338V3.61087H2.64923C1.18841 3.61087 0 4.79928 0 6.2601V9.00258C0 9.58646 0.473362 10.0598 1.05724 10.0598H1.60193V31.7552C1.60193 32.3391 2.07529 32.8125 2.65917 32.8125H22.3964C22.9802 32.8125 23.4536 32.3391 23.4536 31.7552V10.0598H23.9983C24.5822 10.0598 25.0555 9.58646 25.0555 9.00258V6.2601C25.0555 4.79928 23.8671 3.61087 22.4063 3.61087ZM8.98647 2.59338C8.98647 2.33817 9.19411 2.13059 9.44933 2.13059H15.6064C15.8616 2.13059 16.0693 2.33824 16.0693 2.59338V3.61087H8.98647V2.59338ZM2.11455 6.2601C2.11455 5.9652 2.3544 5.72535 2.6493 5.72535H22.4063C22.7012 5.72535 22.9411 5.9652 22.9411 6.2601V7.94534H2.11455V6.2601ZM21.3391 30.698H3.71641V10.0598H21.3391V30.698Z" fill="#202328"/>
<path d="M5.81463 29.1596C6.2039 29.1596 6.51946 28.844 6.51946 28.4548V11.7512C6.51946 11.3619 6.2039 11.0464 5.81463 11.0464C5.42535 11.0464 5.1098 11.3619 5.1098 11.7512V28.4548C5.1098 28.844 5.42535 29.1596 5.81463 29.1596Z" fill="#202328"/>
<path d="M10.29 29.1596C10.6793 29.1596 10.9949 28.844 10.9949 28.4548V11.7512C10.9949 11.3619 10.6793 11.0464 10.29 11.0464C9.90076 11.0464 9.58521 11.3619 9.58521 11.7512V28.4548C9.58521 28.844 9.90076 29.1596 10.29 29.1596Z" fill="#202328"/>
<path d="M14.7655 29.1596C15.1548 29.1596 15.4703 28.844 15.4703 28.4548V11.7512C15.4703 11.3619 15.1548 11.0464 14.7655 11.0464C14.3762 11.0464 14.0607 11.3619 14.0607 11.7512V28.4548C14.0607 28.844 14.3762 29.1596 14.7655 29.1596Z" fill="#202328"/>
<path d="M19.2409 29.1596C19.6302 29.1596 19.9457 28.844 19.9457 28.4548V11.7512C19.9457 11.3619 19.6302 11.0464 19.2409 11.0464C18.8516 11.0464 18.5361 11.3619 18.5361 11.7512V28.4548C18.5361 28.844 18.8516 29.1596 19.2409 29.1596Z" fill="#202328"/>
</svg>
