<?xml version="1.0" encoding="UTF-8"?>
<!-- Created with Inkscape (http://www.inkscape.org/) -->
<svg width="18.016mm" height="19.625mm" version="1.1" viewBox="0 0 18.016 19.625" xml:space="preserve" xmlns="http://www.w3.org/2000/svg"><rect x="5.1805" y="12.17" width="6.0765" height="5.1012" fill="#5e5e5e" stroke-width=".40201"/><g transform="matrix(.068731 0 0 .068731 6.4664 -22.3)"><path d="m-60.24 574.94c0-0.22103 1.5899-0.67449 3.533-1.0077 6.4412-1.1045 11.292-4.6535 15.795-11.556 1.3028-1.9972 2.3687-3.7502 2.3687-3.8955 0-0.14531 0.56763-1.5052 1.2614-3.0219 0.6938-1.5168 1.2614-2.8983 1.2614-3.0699 0-0.17183 0.42469-1.2648 0.94377-2.429 0.51905-1.1642 1.5554-3.7061 2.3029-5.6486 1.6225-4.216 5.1148-12.782 6.4171-15.74 0.51259-1.1642 0.93198-2.2652 0.93198-2.4465 0-0.18135 0.32469-1.0453 0.72154-1.9198 0.39685-0.87449 1.3345-3.1794 2.0836-5.1219 0.74912-1.9425 1.7868-4.4846 2.3058-5.6486s0.94375-2.3409 0.94375-2.6149c0-0.8585 2.0811-1.2268 2.7797-0.49197 0.35692 0.37541 2.9582 6.2455 5.7806 13.044 2.8224 6.7991 5.337 12.816 5.588 13.371 0.25098 0.55503 2.9805 7.0261 6.0655 14.38 3.085 7.3541 6.1728 14.506 6.8619 15.894 2.433 4.9001 4.9585 6.4679 11.398 7.0752 1.8732 0.17678 3.4058 0.53027 3.4058 0.7857 0 0.27487-8.0303 0.4644-19.679 0.4644-12.782 0-19.679-0.17679-19.679-0.50457 0-0.29642 1.752-0.50457 4.2469-0.50457 3.0221 0 4.8797-0.27116 6.4404-0.94018 3.0162-1.2929 3.6338-2.1568 3.2013-4.4785-0.33001-1.7713-5.1009-14.251-5.9818-15.647-0.3007-0.47659-3.3808-0.62881-12.604-0.62298-6.7133 4e-3 -12.461 0.17449-12.772 0.37843-1.0364 0.67867-2.8378 5.3534-3.3581 8.7144-0.70665 4.5654-0.1846 6.8397 2.0922 9.1167 1.9726 1.9726 3.9685 2.719 8.7698 3.2795 6.8571 0.80049 1.701 1.2089-15.263 1.2089-9.9903 0-18.164-0.18078-18.164-0.40187zm50.456-23.516c3.44e-4 -0.24976-1.2707-3.6556-2.8245-7.5686-1.5538-3.913-3.1241-7.9092-3.4893-8.8804-2.9692-7.8951-5.2424-13.354-5.6095-13.469-0.2409-0.0759-0.97012 1.2776-1.6205 3.0076-0.65037 1.73-1.5821 4.0536-2.0705 5.1637-0.48837 1.11-1.5222 3.6077-2.2972 5.5502-0.77513 1.9425-1.7044 4.2132-2.0651 5.0456-2.5352 5.8525-4.5744 11.357-4.307 11.627 0.49672 0.50085 24.282 0.0347 24.284-0.47581zm3.028-36.274c-0.69379-0.34943-1.6862-1.4246-2.2053-2.3893-0.86581-1.6088-0.88139-1.9033-0.18822-3.5591 1.0269-2.453 3.8467-3.8493 5.9848-2.9635 3.1565 1.3075 4.2666 4.278 2.6325 7.0446-1.3837 2.3424-3.8257 3.0751-6.2238 1.8673zm4.405-1.2532c2.9177-2.2602 1.3339-6.6742-2.3948-6.6742-1.4462 0-2.1568 0.29102-2.7385 1.1214-2.5987 3.7103 1.6203 8.2744 5.1333 5.5529zm-4.3064-3.0162c0.1457-2.2694 0.23641-2.4048 1.7104-2.5485 1.9446-0.18976 3.1966 1.0585 2.3773 2.3702-0.35381 0.56652-0.37874 1.1746-0.070748 1.725 0.35181 0.62868 0.28092 0.85006-0.27221 0.85006-0.41136 0-0.89205-0.45409-1.0682-1.0091-0.17621-0.55501-0.55328-1.0091-0.83808-1.0091-0.2848 0-0.63655 0.45411-0.78169 1.0091-0.50332 1.9248-1.2099 0.99706-1.0568-1.3875zm2.9288-1.1353c0-0.27752-0.45412-0.50458-1.0091-0.50458-0.55502 0-1.0091 0.22706-1.0091 0.50458 0 0.27751 0.45412 0.50455 1.0091 0.50455 0.55502 0 1.0091-0.22704 1.0091-0.50455zm123.27-9.4085c-0.78024-0.81129-5.5056-6.1029-10.501-11.759-4.9953-5.6564-11.126-12.584-13.623-15.394-2.4976-2.8106-6.0418-6.8028-7.876-8.8717-13.073-14.746-16.843-18.921-17.23-19.078-0.24961-0.10151-0.36882 9.434-0.27438 21.948 0.1539 20.392 0.24223 22.306 1.1263 24.398 2.0689 4.8967 4.5933 6.86 9.5304 7.412 5.6459 0.63133 3.4817 1.0161-7.5148 1.3362-17.404 0.5065-58.132 0.41025-58.471-0.13808-0.2793-0.45192 0.56913-0.61513 6.7861-1.3054 3.2971-0.36603 5.4421-1.5819 6.8172-3.864 0.9731-1.6149 1.0091-2.5693 1.0091-26.733v-25.058l-1.5294-2.1761c-1.7826-2.5364-3.8705-3.3628-8.6468-3.4223-3.4067-0.0424-4.8549-0.40282-4.4235-1.1008 0.15924-0.25768 13-0.4497 29.893-0.44705l29.614 4e-3 4.0366 4.6268c4.4815 5.1371 13.5 15.336 24.219 27.389 3.8852 4.3686 7.5818 8.5433 8.2147 9.2769 0.63289 0.73378 2.2223 2.5775 3.532 4.0972 4.7165 5.4728 5.4987 6.2266 6.0844 5.8647 0.42608-0.26333 0.58548-5.0629 0.58499-17.614-9.1e-4 -19.156-0.50553-24.257-2.7333-27.623-1.4628-2.2104-4.6379-3.8836-8.1384-4.2887-4.2544-0.49239-5.0689-0.73456-4.2382-1.2601 0.95364-0.6033 29.267-0.6033 30.221 0 0.8164 0.51648 0.0923 0.74449-4.0707 1.2819-3.6542 0.47168-6.6206 2.6574-8.3291 6.1372l-1.4492 2.9517-0.15103 26.994c-0.0831 14.847-0.35293 27.196-0.59964 27.442-0.26172 0.26172-1.0395-0.16593-1.8672-1.0265zm-59.772-1.7776c3.5379-0.67019 6.1908-3.0308 7.745-6.8916 1.1312-2.81 1.1551-3.2763 1.311-25.642l0.15886-22.779-1.6679-1.5725c-3.2065-3.0232-5.5685-3.7958-12.245-4.0048-7.9561-0.24924-10.754 0.37864-13.06 2.9311-2.3699 2.6231-2.4528 3.7378-2.2575 30.293 0.17278 23.495 0.11156 22.932 2.8167 25.834 1.3984 1.5001 2.5915 1.8612 7.9012 2.392 3.6888 0.36866 4.7187 0.30655 9.2971-0.56075zm-88.223 1.6127c-12.225-0.26288-14.755-0.71185-6.6879-1.1866 5.0342-0.29627 6.9097-1.2484 8.5429-4.337l1.1725-2.2173v-27.391c0-15.064-0.1703-27.482-0.37843-27.595-1.0401-0.56548-8.8803 0.64601-11.088 1.7134-5.703 2.7572-9.1461 7.9351-13.218 19.877-0.75692 2.2202-1.5835 3.979-1.8368 3.9086-0.49768-0.13828-0.3142-20.516 0.21917-24.343l0.3164-2.2705 31.003-0.13006c17.051-0.0715 31.174 0.0428 31.386 0.25421 0.52077 0.52076 0.63344 26.113 0.11499 26.113-0.22596 0-1.1604-2.1521-2.0764-4.7824-2.1732-6.24-3.3487-8.6749-6.0279-12.486-2.3424-3.332-5.4142-5.7794-8.7162-6.9444-1.9825-0.69948-8.8598-1.1728-9.3866-0.646-0.5617 0.56171-0.20552 53.547 0.37292 55.477 0.31151 1.0397 1.1572 2.5926 1.8794 3.4508 1.3498 1.6041 2.2919 1.8606 10.279 2.7986 1.3236 0.15542 2.2751 0.49506 2.1147 0.75478-0.29515 0.47756-5.0483 0.47435-27.984-0.0191zm97.129-73.67c-8.0234-1.8185-12.648-4.8486-15.194-9.9549l-1.4563-2.9208-0.2523-22.202-0.25228-22.202-1.2614-2.2705c-2.1008-3.7814-3.7225-4.2908-13.623-4.2786-9.7666 0.012-11.24 0.43437-13.466 3.8617l-1.4182 2.183v24.471c0 24.444 0.0015 24.475 1.1402 26.605 0.62712 1.1737 1.767 2.4582 2.5331 2.8542 1.5759 0.81495 7.0856 1.9383 7.6861 1.567 0.21689-0.13406 1.0988-0.10284 1.9599 0.0695 4.4113 0.88226-0.15314 1.1961-17.398 1.1961-14.946 0-18.919-0.13349-18.753-0.63071 0.11862-0.35584 1.0715-0.64035 2.1864-0.65286 3.1031-0.0347 7.0751-1.2098 8.1541-2.4122 2.6113-2.9101 2.6521-3.4052 2.6521-32.172v-26.763l-1.6358 0.15808c-1.5483 0.14972-1.7055 0.36059-2.9395 3.9424-0.71698 2.0813-1.4395 4.1249-1.6056 4.541-0.1661 0.41625-0.56208 1.6651-0.88002 2.7751-0.31792 1.1101-0.77961 2.4725-1.026 3.0274-0.49951 1.1253-3.7805 10.715-7.5953 22.202-1.3826 4.1627-2.6527 7.909-2.8222 8.3253-0.6482 1.5909-4.7931 13.454-5.2888 15.137-0.28605 0.97128-0.72768 1.9833-0.98137 2.249-0.64898 0.67946-1.7691-0.60947-2.3927-2.7535-0.28256-0.9713-1.5762-4.7176-2.8748-8.3253-1.2986-3.6077-2.6765-7.5812-3.0619-8.8299-0.3855-1.2488-0.90643-2.7248-1.1576-3.2797-0.25118-0.55495-2.0848-5.6639-4.0746-11.353-1.9898-5.689-3.7971-10.798-4.0162-11.353-0.2191-0.55502-1.2436-3.5068-2.2766-6.5594-1.0331-3.0526-2.1994-6.2657-2.5916-7.1403-0.39233-0.87447-0.71334-1.8394-0.71334-2.1444 0-0.30498-0.68901-0.55444-1.5311-0.55444h-1.5311l0.1436 25.859 0.1436 25.859 1.3558 2.8922c2.0096 4.2872 6.0943 6.5295 12.138 6.6637 0.76157 0.0173 1.3861 0.25782 1.3879 0.53533 0.0019 0.32275-5.6334 0.55259-15.639 0.6379-14.18 0.12091-15.642 0.0565-15.642-0.68956 0-0.57584 0.30448-0.74326 1.0142-0.55767 1.6362 0.42785 7.1222-1.0851 8.9275-2.4622 4.1998-3.2034 4.6934-6.5686 4.6796-31.903-0.0095-18.837-0.08734-20.695-0.93788-22.547-0.50973-1.1101-1.3596-2.4025-1.8885-2.872-1.2688-1.1264-4.7422-1.8938-8.6415-1.9089-2.1799-8e-3 -3.1535-0.20707-3.1535-0.64301-1.9e-5 -0.49181 3.0194-0.60661 13.708-0.5212 7.5392 0.0604 13.876 0.28731 14.081 0.50457s0.60741 1.1897 0.89348 2.161c0.52878 1.7955 4.7163 13.755 5.3 15.137 0.17583 0.41628 0.63872 1.7786 1.0286 3.0274 1.0959 3.5097 4.3175 12.748 4.8389 13.876 0.59968 1.2972 4.5416 12.761 4.9011 14.254 0.40154 1.667 1.535 1.3827 1.9459-0.48801 0.19608-0.89281 0.5533-1.9713 0.79382-2.3968s1.2218-3.1575 2.1807-6.0714c3.1271-9.5033 7.8726-23.439 8.3331-24.471 0.24757-0.55502 0.88488-2.3714 1.4162-4.0366 0.53137-1.6651 1.6136-4.9007 2.4049-7.19l1.4388-4.1626h67.671c0.13883 0 0.25752 0.17029 0.26391 0.37842 0.0058 0.20813-1.6398 0.51759-3.6581 0.68768-5.3208 0.44842-6.6569 0.83939-8.0783 2.3643-2.6939 2.8895-2.6447 2.4656-2.8083 24.276-0.16648 22.207 0.08506 25.482 2.288 29.792 2.7011 5.2851 7.3247 7.3199 16.534 7.2772 7.8039-0.0363 12.802-1.8796 16.139-5.953 4.2874-5.2323 4.7914-8.4218 4.7964-30.352 4e-3 -19.761-0.13121-20.609-3.8652-24.238-2.2177-2.1553-5.124-3.2234-8.77-3.2234-0.85471 0-1.4889-0.26863-1.4889-0.63069 0-0.49252 3.1777-0.60654 14.501-0.5204 13.76 0.10475 18.226 0.60528 11.964 1.3413-1.5602 0.18346-3.4755 0.66376-4.2563 1.0675-1.944 1.0052-4.9333 4.6013-5.6383 6.7823-0.37543 1.1615-0.63186 7.5204-0.72375 17.945-0.0782 8.8805-0.26657 17.627-0.41843 19.436-1.1193 13.335-8.9598 19.736-24.038 19.625-3.6029-0.0265-7.2866-0.38616-9.8069-0.95741z" stroke-width=".50456"/></g></svg>
