<?xml version="1.0" encoding="UTF-8"?>
<svg width="59.382" height="51.957" version="1.1" viewBox="0 0 59.382 51.957" xmlns="http://www.w3.org/2000/svg">
 <!--! Font Awesome Pro 6.2.0 by @fontawesome - https://fontawesome.com License - https://fontawesome.com/license (Commercial License) Copyright 2022 Fonticons, Inc. -->
 <path d="m11.134 18.45h-7.4227c-2.0494 0-3.7114 1.662-3.7114 3.607v25.875c0 2.0494 1.662 3.607 3.7114 3.607h7.4227c2.0494 0 3.7114-1.662 3.7114-3.607v-25.771c0-1.9485-1.6585-3.7114-3.7114-3.7114zm48.248 4.1637c0-4.2785-3.4852-7.7614-7.7672-7.7614h-11.582c1.1053-2.8972 1.72-5.4024 1.72-6.8753 0-3.9201-3.0387-7.9771-8.1256-7.9771-5.4058 0-6.8846 3.7624-8.0734 6.7848-3.6719 9.3364-6.9971 7.6999-6.9971 10.841 0 1.4892 1.2016 2.7824 2.7858 2.7824 0.60959 0 1.2236-0.1996 1.7362-0.61005 8.9026-7.1177 6.7234-14.231 10.548-14.231 1.865 0 2.5585 1.4788 2.5585 2.4112 0 0.85871-0.88075 4.587-2.9633 8.303-0.2373 0.42286-0.3556 0.89142-0.3556 1.3593 0 1.6144 1.3257 2.6791 2.7835 2.6791h15.959c1.2196 0.10206 2.2055 1.0879 2.2055 2.2941 0 1.1376-0.90071 2.0911-2.0494 2.17-1.4683 0.0997-2.5933 1.3222-2.5933 2.7766 0 1.7942 1.321 1.8499 1.321 3.353 0 2.9424-4.0628 1.4312-4.0628 4.8886 0 1.3013 0.74135 1.5112 0.74135 2.5806 0 2.6281-3.4527 1.5959-3.4527 4.7134 0 0.52365 0.12874 0.69136 0.12874 1.0967 0 1.212-0.98769 2.1978-2.2002 2.1978h-6.0924c-2.9714 0-5.9173-0.98189-8.2926-2.7615l-4.2518-3.1906c-0.50045-0.37635-1.0867-0.55798-1.6678-0.55798-1.6063 0-2.787 1.3199-2.787 2.7882 0 0.84515 0.38412 1.6724 1.1129 2.2187l4.253 3.1918c3.3335 2.4976 7.4624 3.8778 11.638 3.8778h6.0924c4.0976 0 7.4645-3.1883 7.7475-7.214 2.061-1.4184 3.3437-3.7705 3.3437-6.3592 0-0.35328-0.0254-0.70829-0.0743-1.058 2.0691-1.4092 3.3959-3.7786 3.3959-6.4114 0-0.61597-0.0743-1.2224-0.21746-1.8139 2.1312-1.4878 3.5346-3.7958 3.5346-6.4865z" stroke-width=".11598"/>
</svg>
