<svg width="35" height="35" viewBox="0 0 35 35" fill="none" xmlns="http://www.w3.org/2000/svg">
<path d="M0 4C0 1.79086 1.79086 0 4 0H28C30.2091 0 32 1.79086 32 4V21H29V3H3V29H21V32H4C1.79086 32 0 30.2091 0 28V4Z" fill="#202328"/>
<path d="M20.3072 13.1037C19.9077 12.5575 19.0923 12.5575 18.6928 13.1038L14.6594 18.6191L12.8058 16.0967C12.4062 15.5528 11.5938 15.5528 11.1942 16.0967L7.10774 21.6579C6.62246 22.3183 7.09404 23.25 7.91358 23.25H25.7571C26.5756 23.25 27.0474 22.3204 26.5642 21.6597L20.3072 13.1037Z" fill="#202328"/>
<path d="M28 30V35H30V30H35V28H30V23H28V28H23V30H28Z" fill="#202328"/>
</svg>
