<svg width="17" height="11" viewBox="0 0 17 11" fill="none" xmlns="http://www.w3.org/2000/svg">
<path d="M0.576753 9.38363L8.18315 0.534734C8.24484 0.462271 8.31873 0.40465 8.40042 0.365297C8.48211 0.325944 8.56993 0.305664 8.65866 0.305664C8.74738 0.305664 8.8352 0.325944 8.91689 0.365297C8.99858 0.40465 9.07247 0.462272 9.13416 0.534734C9.26062 0.682933 9.33134 0.881247 9.33134 1.08767C9.33134 1.29409 9.26062 1.4924 9.13416 1.6406L1.52777 10.4895C1.46608 10.562 1.39219 10.6196 1.3105 10.6589C1.22881 10.6983 1.14099 10.7186 1.05226 10.7186C0.963532 10.7186 0.875711 10.6983 0.794021 10.6589C0.712332 10.6196 0.638444 10.562 0.576753 10.4895C0.450296 10.3413 0.379578 10.143 0.379578 9.93656C0.379578 9.73014 0.450296 9.53183 0.576753 9.38363Z" fill="white"/>
<path d="M15.7835 10.4904L8.17708 1.64149C8.05063 1.49329 7.97991 1.29497 7.97991 1.08855C7.97991 0.882131 8.05063 0.683818 8.17708 0.535618C8.23877 0.463156 8.31266 0.405533 8.39435 0.36618C8.47604 0.326827 8.56386 0.306548 8.65259 0.306548C8.74132 0.306548 8.82914 0.326827 8.91083 0.36618C8.99252 0.405533 9.06641 0.463155 9.1281 0.535618L16.7345 9.38451C16.8607 9.53296 16.9311 9.73142 16.9308 9.93784C16.9305 10.1443 16.8595 10.3424 16.7328 10.4904C16.6711 10.5625 16.5973 10.6199 16.5158 10.6591C16.4343 10.6983 16.3467 10.7184 16.2581 10.7184C16.1696 10.7184 16.082 10.6983 16.0005 10.6591C15.9189 10.6199 15.8451 10.5625 15.7835 10.4904Z" fill="white"/>
</svg>
