<svg width="23" height="21" viewBox="0 0 23 21" fill="none" xmlns="http://www.w3.org/2000/svg">
<path fill-rule="evenodd" clip-rule="evenodd" d="M17.9179 0.81283C18.2396 0.363916 18.8643 0.260792 19.3133 0.582496L21.7517 2.32998C22.2007 2.65168 22.3038 3.27639 21.9821 3.72531L10.0306 20.4026C9.70894 20.8515 9.08424 20.9547 8.63532 20.633L8.32821 20.4129C8.26952 20.3708 8.21557 20.3226 8.16728 20.2689L0.65997 11.9243C0.294066 11.5176 0.32291 10.8924 0.724706 10.5211L2.74262 8.65634C3.14823 8.28152 3.78091 8.30648 4.15573 8.71209L7.88597 12.7488C8.31581 13.2139 9.06431 13.1674 9.43323 12.6526L17.9179 0.81283Z" fill="#51D72F"/>
</svg>
