<svg width="19" height="19" viewBox="0 0 19 19" fill="none" xmlns="http://www.w3.org/2000/svg">
<path fill-rule="evenodd" clip-rule="evenodd" d="M16.1465 0C15.7718 0 15.4008 0.0738033 15.0546 0.217197C14.7084 0.360591 14.3938 0.570766 14.1289 0.83572L8.40239 6.56223L8.40218 6.56243L8.40189 6.56272C7.96654 6.99766 7.66962 7.55171 7.54854 8.15508L7.54838 8.15592L7.01938 10.8039C6.95388 11.1318 7.05656 11.4707 7.29302 11.7071C7.52948 11.9434 7.86842 12.046 8.19626 11.9804L10.8441 11.4504L10.8443 11.4504C11.4476 11.3297 12.0014 11.0337 12.4371 10.5979L18.1641 4.87093C18.4291 4.60598 18.6392 4.29143 18.7826 3.94525C18.926 3.59906 18.9998 3.22803 18.9998 2.85333C18.9998 2.47863 18.926 2.10759 18.7826 1.76141C18.6392 1.41522 18.4291 1.10068 18.1641 0.83572C17.8992 0.570764 17.5846 0.360589 17.2384 0.217197C16.8922 0.0738033 16.5212 0 16.1465 0ZM15.8199 2.06496C15.9235 2.02207 16.0344 2 16.1465 2C16.2586 2 16.3695 2.02207 16.4731 2.06496C16.5766 2.10784 16.6707 2.1707 16.7499 2.24993C16.8291 2.32917 16.892 2.42324 16.9349 2.52677C16.9778 2.6303 16.9998 2.74126 16.9998 2.85333C16.9998 2.96539 16.9778 3.07635 16.9349 3.17988C16.892 3.28341 16.8291 3.37748 16.7499 3.45672L15.8439 4.36272L14.6368 3.15622L15.5431 2.24993C15.6223 2.17069 15.7164 2.10784 15.8199 2.06496ZM13.2226 4.57043L14.4297 5.77694L11.0229 9.18372C10.8666 9.33996 10.6685 9.44592 10.4519 9.48925L10.4517 9.48927L9.27445 9.72491L9.50946 8.54857L9.50953 8.54817C9.55302 8.3319 9.65951 8.13331 9.81561 7.97743L9.81611 7.97693L13.2226 4.57043ZM2.29289 4.29289C2.48043 4.10536 2.73478 4 3 4H6C6.55228 4 7 3.55228 7 3C7 2.44772 6.55228 2 6 2H3C2.20435 2 1.44129 2.31607 0.87868 2.87868C0.31607 3.44129 0 4.20435 0 5V16C0 16.7957 0.31607 17.5587 0.87868 18.1213C1.44129 18.6839 2.20435 19 3 19H14C14.7957 19 15.5587 18.6839 16.1213 18.1213C16.6839 17.5587 17 16.7957 17 16V13C17 12.4477 16.5523 12 16 12C15.4477 12 15 12.4477 15 13V16C15 16.2652 14.8946 16.5196 14.7071 16.7071C14.5196 16.8946 14.2652 17 14 17H3C2.73478 17 2.48043 16.8946 2.29289 16.7071C2.10536 16.5196 2 16.2652 2 16V5C2 4.73478 2.10536 4.48043 2.29289 4.29289Z" fill="#202328"/>
</svg>
