<svg width="24" height="41" viewBox="0 0 24 41" fill="none" xmlns="http://www.w3.org/2000/svg">
<path fill-rule="evenodd" clip-rule="evenodd" d="M1 0.330078H3.88612C4.15106 0.499966 4.46595 0.643857 4.81763 0.754222C4.93251 0.917035 5 1.11568 5 1.33008V1H6.5H7L7.0002 0.979729C8.08302 0.891187 9.00593 0.519433 9.53176 0H16C16.1157 0 16.2269 0.0196614 16.3302 0.0558257C16.548 0.0191124 16.7718 0 17 0H20C22.2091 0 24 1.79086 24 4C24 4.37194 23.9492 4.73201 23.8543 5.07369C23.4639 3.87016 22.3336 3 21 3H17V6C17 6.55225 16.5522 7 16 7H15V21.5063C15.4111 21.8726 15.6699 22.4062 15.6699 23V39C15.6699 40.1045 14.7744 41 13.6699 41H12.1699C11.0654 41 10.1699 40.1045 10.1699 39V23C10.1699 22.3325 10.4971 21.7412 11 21.3779V7H10C10 5.99244 8.69615 5.15889 7 5.02025V5H6.5H5V4.83008C5 4.96604 4.97286 5.09566 4.92371 5.21383C4.42118 5.35893 3.9882 5.57124 3.66097 5.83008H1C0.447754 5.83008 0 5.38232 0 4.83008V1.33008C0 0.777832 0.447754 0.330078 1 0.330078Z" fill="#F88500"/>
</svg>
