<svg width="32" height="32" viewBox="0 0 32 32" fill="none" xmlns="http://www.w3.org/2000/svg">
<path d="M15.9835 2.74924C14.6966 4.03659 13.8119 5.67054 13.4373 7.45194C13.0627 9.23335 13.2143 11.0853 13.8737 12.782L0 26.7499V29.3074L15.1986 14.107L16.2485 15.1671L0 31.4175V32H5.49948L6.76686 27.3699L10.9515 26.3899L11.9314 22.2047L15.681 21.6697L18.2483 19.0872L19.2107 18.1246C20.7858 18.7388 22.4977 18.9159 24.1651 18.6371C25.8326 18.3583 27.3938 17.6341 28.6836 16.541C29.9734 15.4479 30.9439 14.0265 31.4924 12.4271C32.041 10.8278 32.1472 9.1099 31.7999 7.45515C31.4526 5.80039 30.6646 4.27024 29.5193 3.02651C28.374 1.78277 26.914 0.871669 25.2935 0.389535C23.6731 -0.0925979 21.9525 -0.127843 20.3137 0.287527C18.6749 0.702897 17.1787 1.55345 15.9835 2.74924ZM26.2675 13.0345L18.9657 5.72931C19.934 4.76092 21.2473 4.21688 22.6166 4.21688C23.986 4.21688 25.2992 4.76092 26.2675 5.72931C27.2358 6.69771 27.7798 8.01114 27.7798 9.38066C27.7798 10.7502 27.2358 12.0636 26.2675 13.032V13.0345Z" fill="black"/>
</svg>
