<?xml version="1.0" encoding="UTF-8"?>
<!-- Created with Inkscape (http://www.inkscape.org/) -->
<svg width="141.56" height="123.28" version="1.1" viewBox="0 0 141.56 123.28" xmlns="http://www.w3.org/2000/svg">
 <g transform="translate(84.825 -216.91)">
  <path d="m-83.028 338.16c-3.8257-4.2274-1.2368-23.307 4.8494-35.737 4.4863-9.163 15.922-20.624 25.246-25.301 11.311-5.6745 16.809-6.6763 36.636-6.6763 18.889 0 20.621-0.4565 20.621-5.4342 0-4.5214-1.527-4.7982-23.675-4.2905-19.172 0.43947-21.252 0.66926-28.109 3.1051-4.0727 1.4468-7.5771 2.6305-7.7874 2.6305-0.21034 0 1.0684-2.7221 2.8417-6.0491 6.6313-12.442 20.74-22.678 34.291-24.88 3.291-0.53473 14.381-0.97484 24.645-0.97801 16.562-5e-3 19.297-0.24363 24.311-2.1195 5.5548-2.0783 13.121-8.395 16.487-13.764 2.1296-3.3973 3.4917-2.0591 5.797 5.6954 10.32 34.713-2.2453 76.854-28.503 95.591-25.314 18.063-58.39 13.75-74.017-9.6522-2.1811-3.2662-4.504-7.6234-5.1621-9.6826-0.65809-2.0593-1.6289-4.1929-2.1574-4.7414-1.4296-1.4837-7.2913 5.7268-11.378 13.996-2.983 6.0357-3.5891 8.4972-4.2761 17.367-0.64131 8.2792-1.1651 10.601-2.6341 11.675-2.6612 1.9459-5.8536 1.6459-8.0258-0.75439z" stroke-width=".99728"/>
 </g>
</svg>
