<?xml version="1.0" encoding="UTF-8"?>
<!-- Created with Inkscape (http://www.inkscape.org/) -->
<svg width="412.6" height="411.43" version="1.1" viewBox="0 0 412.6 411.43" xmlns="http://www.w3.org/2000/svg">
 <g transform="translate(208.77 -35.241)">
  <path d="m-196.22 433.92-12.553-12.745 227.18-227.18 26.652 26.652-112.98 113.01c-62.142 62.153-113.6 113.01-114.36 113.01-0.75681 0-7.0249-5.7351-13.929-12.745zm353.6-160.64c-10.845-18.641-27.939-42.857-48.006-68.006-6.7771-8.4936-6.8724-8.5227-12.183-3.7166-5.3439 4.8362-5.4004 4.7962-34.941-24.745-29.541-29.541-29.581-29.597-24.745-34.941 4.8061-5.3107 4.777-5.406-3.7166-12.183-24.2-19.31-49.206-37.019-67.425-47.752-11.175-6.583-20.748-12.309-21.274-12.724-2.1735-1.7144 13.78-33.974 16.801-33.974 11.24 0 78.075 37.392 105.56 59.056l9.6563 7.6119 12.492-11.735 17.066 16.541 11.046-14.042 28.883 28.883-5.6693 3.9709c-7.3537 5.1508-7.147 8.2118 1.1387 16.86l6.808 7.106-11.372 12.105 13.079 17.457c21.035 28.076 53.248 87.598 53.248 98.392 0 2.7126-28.148 17.032-33.016 16.796-0.69841-0.034-6.7411-9.4658-13.428-20.96z" stroke-width="2.5397"/>
 </g>
</svg>
