<svg width="32" height="32" viewBox="0 0 32 32" fill="none" xmlns="http://www.w3.org/2000/svg">
<path d="M21.5001 16C22.8808 16 24.0001 14.8807 24.0001 13.5C24.0001 12.1193 22.8808 11 21.5001 11C20.1193 11 19.0001 12.1193 19.0001 13.5C19.0001 14.8807 20.1193 16 21.5001 16Z" fill="#F88500"/>
<path d="M21.8059 17.0967C21.4063 16.5528 20.5938 16.5528 20.1942 17.0967L18.3407 19.6191L14.3072 14.1037C13.9077 13.5575 13.0924 13.5575 12.6929 14.1038L6.43582 22.6597C5.95266 23.3204 6.42451 24.25 7.243 24.25H25.0865C25.906 24.25 26.3776 23.3183 25.8923 22.6579L21.8059 17.0967Z" fill="#F88500"/>
<path fill-rule="evenodd" clip-rule="evenodd" d="M0 4C0 1.79086 1.79086 0 4 0H28C30.2091 0 32 1.79086 32 4V28C32 30.2091 30.2091 32 28 32H4C1.79086 32 0 30.2091 0 28V4ZM3 3H29V29H3V3Z" fill="#F88500"/>
</svg>
